<?xml version="1.0" encoding="UTF-8" standalone="no"?><!-- Generator: Gravit.io --><svg xmlns="http://www.w3.org/2000/svg" xmlns:xlink="http://www.w3.org/1999/xlink" style="isolation:isolate" viewBox="0 0 500 500" width="500pt" height="500pt"><defs><clipPath id="_clipPath_XTf6ATodv7YRyQBdzYscmrgeHu7bBmY5"><rect width="500" height="500"/></clipPath></defs><g clip-path="url(#_clipPath_XTf6ATodv7YRyQBdzYscmrgeHu7bBmY5)"><rect width="500" height="500" style="fill:rgb(0,0,0)" fill-opacity="0"/><path d=" M 377.307 271.845 C 387.024 252.111 407.34 238.519 430.806 238.519 C 463.697 238.519 490.4 265.222 490.4 298.113 C 490.4 298.146 490.4 298.18 490.399 298.213 C 490.4 298.231 490.4 298.249 490.4 298.267 L 490.4 298.267 L 490.4 434.101 L 371.212 434.101 L 371.212 389.518 L 382.041 389.518 L 382.041 423.27 L 479.571 423.27 L 479.571 298.354 L 479.571 298.251 L 479.571 298.067 C 479.571 291.564 478.266 285.132 475.743 279.144 C 473.285 273.35 469.733 268.087 465.283 263.637 C 460.832 259.186 455.569 255.634 449.776 253.176 C 443.771 250.642 437.322 249.343 430.804 249.348 C 424.29 249.343 417.841 250.642 411.837 253.176 C 406.043 255.634 400.781 259.186 396.33 263.637 C 393.833 266.134 391.619 268.886 389.722 271.845 L 377.307 271.845 Z " fill="rgb(206,171,96)"/><path d=" M 105.785 434.101 L 9.6 434.101 L 9.6 298.139 C 9.6 298.13 9.6 298.122 9.6 298.113 C 9.6 265.222 36.303 238.519 69.194 238.519 C 93.718 238.519 114.803 253.365 123.942 274.552 L 123.942 274.552 L 111.893 274.552 C 109.68 270.555 106.913 266.88 103.67 263.637 C 99.219 259.186 93.957 255.634 88.163 253.176 C 82.159 250.642 75.71 249.343 69.196 249.348 C 62.677 249.343 56.229 250.642 50.224 253.176 C 44.431 255.634 39.168 259.186 34.717 263.637 C 30.267 268.087 26.715 273.35 24.257 279.144 C 21.728 285.143 20.423 291.591 20.429 298.105 L 20.429 298.11 L 20.429 298.11 L 20.429 298.11 L 20.429 298.137 L 20.429 423.27 L 114.256 423.27 L 105.785 434.101 Z  M 20.429 298.11 L 20.429 298.11 L 20.429 298.11 L 20.429 298.11 Z " fill-rule="evenodd" fill="rgb(206,171,96)"/><path d=" M 231.139 103.488 C 230.543 101.625 230.221 99.632 230.221 97.552 C 230.221 86.635 239.084 77.773 250 77.773 C 260.916 77.773 269.779 86.635 269.779 97.552 C 269.779 99.633 269.457 101.626 268.855 103.487 C 315.709 112.331 351.194 153.516 351.194 202.924 C 351.194 202.981 351.194 203.037 351.194 203.093 L 351.194 203.093 C 351.194 203.123 351.194 203.153 351.194 203.183 L 351.194 271.412 L 342.532 271.412 L 342.532 203.217 L 342.532 203.109 L 342.532 203.109 L 342.532 202.903 C 342.532 196.65 341.904 190.407 340.648 184.278 C 339.43 178.333 337.627 172.518 335.261 166.93 C 330.599 155.939 323.863 145.949 315.417 137.508 C 306.976 129.062 296.986 122.326 285.995 117.664 C 280.407 115.298 274.592 113.495 268.647 112.277 C 262.513 111.021 256.264 110.393 250 110.393 C 243.736 110.393 237.487 111.021 231.353 112.277 C 225.408 113.495 219.593 115.298 214.005 117.664 C 203.014 122.326 193.024 129.062 184.583 137.508 C 176.137 145.949 169.401 155.939 164.739 166.93 C 162.373 172.518 160.57 178.333 159.352 184.278 C 158.096 190.407 157.468 196.65 157.468 202.903 L 157.468 203.109 L 157.468 203.217 L 157.468 279.335 C 154.86 277.255 151.911 275.464 148.805 274.9 L 148.805 203.183 L 148.805 203.183 C 148.805 203.153 148.806 203.123 148.806 203.093 C 148.806 203.037 148.805 202.981 148.805 202.924 C 148.805 153.519 184.288 112.335 231.139 103.488 Z " fill="rgb(206,171,96)"/><path d=" M 250 32.697 L 250 32.697 C 251.209 32.697 252.19 41.707 252.19 52.804 L 252.19 52.804 C 252.19 63.901 251.209 72.91 250 72.91 L 250 72.91 C 248.791 72.91 247.81 63.901 247.81 52.804 L 247.81 52.804 C 247.81 41.707 248.791 32.697 250 32.697 L 250 32.697 Z  M 242.772 58.971 L 242.772 58.971 C 243.981 58.971 244.962 62.253 244.962 66.295 L 244.962 66.295 C 244.962 70.337 243.981 73.618 242.772 73.618 L 242.772 73.618 C 241.563 73.618 240.581 70.337 240.581 66.295 L 240.581 66.295 C 240.581 62.253 241.563 58.971 242.772 58.971 L 242.772 58.971 Z  M 257.228 58.971 L 257.228 58.971 C 258.437 58.971 259.419 62.253 259.419 66.295 L 259.419 66.295 C 259.419 70.337 258.437 73.618 257.228 73.618 L 257.228 73.618 C 256.019 73.618 255.038 70.337 255.038 66.295 L 255.038 66.295 C 255.038 62.253 256.019 58.971 257.228 58.971 Z " fill-rule="evenodd" fill="rgb(206,171,96)"/><path d=" M 329.301 227.184 L 329.301 202.765 C 329.301 202.724 329.301 202.683 329.3 202.642 C 329.301 202.568 329.301 202.495 329.301 202.421 C 329.301 158.653 293.768 123.119 250 123.119 C 206.232 123.119 170.699 158.653 170.699 202.421 C 170.699 202.495 170.699 202.568 170.7 202.642 C 170.699 202.683 170.699 202.724 170.699 202.765 L 170.699 202.765 L 170.699 291.182 C 173.639 284.218 177.352 276.926 183.24 273.774 C 193.523 268.27 208.011 268.055 217.622 289.983 Q 221.778 299.466 229.574 315.966 Q 238.016 273.722 258.23 252.064 C 278.444 230.407 306.96 223.494 329.159 227.149 Q 329.23 227.164 329.301 227.184 Z " fill="rgb(206,171,96)"/><path d=" M 300.885 250.163 L 300.885 250.163 L 300.885 250.163 Q 309.851 247.824 315.504 247.824 L 315.504 247.824 L 315.504 247.824 Q 321.156 247.824 324.47 248.214 L 324.47 248.214 L 324.47 250.163 L 324.47 250.163 Q 298.935 251.528 283.537 273.553 L 283.537 273.553 L 283.537 273.553 Q 275.545 284.859 270.672 299.868 L 270.672 299.868 L 234.027 414.09 L 234.027 414.09 Q 230.714 424.811 230.714 433.972 L 230.714 433.972 L 230.714 433.972 Q 230.714 434.946 230.714 435.726 L 230.714 435.726 L 228.765 435.726 L 186.467 341.775 L 151.772 424.226 L 151.772 424.226 Q 146.509 437.09 136.373 449.175 L 136.373 449.175 L 136.373 449.175 Q 125.458 462.04 109.864 466.133 L 109.864 466.133 L 109.864 466.133 Q 106.161 467.303 102.067 467.303 L 102.067 467.303 L 102.067 467.303 Q 97.974 467.303 93.296 465.938 L 93.296 465.938 L 93.491 463.989 L 93.491 463.989 Q 100.703 463.599 107.428 460.091 L 107.428 460.091 L 107.428 460.091 Q 114.152 456.582 119.22 451.612 L 119.22 451.612 L 119.22 451.612 Q 124.288 446.641 128.966 440.014 L 128.966 440.014 L 128.966 440.014 Q 136.568 429.294 141.831 416.624 L 141.831 416.624 L 102.262 309.029 L 102.262 309.029 Q 99.728 303.376 95.05 300.55 L 95.05 300.55 L 95.05 300.55 Q 90.372 297.723 85.499 297.723 L 85.499 297.723 L 83.94 297.723 L 83.94 295.774 L 143.39 295.774 L 143.39 297.723 L 141.636 297.723 L 141.636 297.723 Q 137.543 297.723 135.496 300.355 L 135.496 300.355 L 135.496 300.355 Q 133.449 302.986 133.449 305.325 L 133.449 305.325 L 133.449 305.325 Q 133.449 307.664 134.229 309.808 L 134.229 309.808 L 158.204 377.445 L 193.484 292.656 L 195.239 292.85 L 234.027 378.42 L 256.443 299.868 L 256.443 299.868 Q 261.316 282.91 271.842 269.85 L 271.842 269.85 L 271.842 269.85 Q 284.122 254.451 300.885 250.163 Z  M 386.649 369.064 L 330.122 369.064 L 330.122 417.988 L 330.122 417.988 Q 330.122 423.056 333.826 426.662 L 333.826 426.662 L 333.826 426.662 Q 337.529 430.268 342.597 430.268 L 342.597 430.268 L 344.936 430.268 L 345.131 432.217 L 285.876 432.217 L 285.876 430.268 L 288.41 430.268 L 288.41 430.268 Q 293.478 430.268 297.084 426.662 L 297.084 426.662 L 297.084 426.662 Q 300.69 423.056 300.885 417.988 L 300.885 417.988 L 300.885 309.419 L 300.885 309.419 Q 300.495 304.546 296.889 301.134 L 296.889 301.134 L 296.889 301.134 Q 293.283 297.723 288.41 297.723 L 288.41 297.723 L 285.876 297.723 L 285.876 295.774 L 360.53 295.774 L 360.53 295.774 Q 369.106 295.774 375.539 294.41 L 375.539 294.41 L 375.539 294.41 Q 381.971 293.045 383.92 292.266 L 383.92 292.266 L 383.92 325.207 L 381.971 325.207 L 381.971 323.258 L 381.971 323.258 Q 381.971 311.563 373.2 306.69 L 373.2 306.69 L 373.2 306.69 Q 369.106 304.351 363.454 304.156 L 363.454 304.156 L 330.122 304.156 L 330.122 360.877 L 386.259 360.877 L 386.259 360.877 Q 393.471 360.682 398.149 355.907 L 398.149 355.907 L 398.149 355.907 Q 402.827 351.131 402.827 344.114 L 402.827 344.114 L 402.827 342.36 L 404.776 342.36 L 404.776 387.386 L 402.827 387.386 L 402.827 385.827 L 402.827 385.827 Q 402.827 378.615 398.247 373.937 L 398.247 373.937 L 398.247 373.937 Q 393.666 369.259 386.649 369.064 L 386.649 369.064 Z " fill="rgb(202,138,4)"/></g></svg>